<svg width="22" height="22" viewBox="0 0 22 22" fill="none" xmlns="http://www.w3.org/2000/svg">
<g clip-path="url(#clip0_282_11)">
<path d="M16.1792 11.2477C16.2447 11.0892 16.2447 10.9112 16.1792 10.7527C16.1476 10.6741 16.1009 10.6025 16.0417 10.5419L11.4584 5.95855C11.3368 5.83699 11.1719 5.7687 11 5.7687C10.8281 5.7687 10.6633 5.83699 10.5417 5.95855C10.4201 6.08011 10.3519 6.24498 10.3519 6.41688C10.3519 6.58879 10.4201 6.75366 10.5417 6.87522L14.0205 10.354L6.41669 10.3494C6.33112 10.349 6.24634 10.3656 6.16721 10.3982C6.08809 10.4308 6.01621 10.4787 5.9557 10.5392C5.89519 10.5997 5.84727 10.6716 5.81468 10.7507C5.7821 10.8299 5.76551 10.9147 5.76586 11.0002C5.76551 11.0858 5.7821 11.1706 5.81468 11.2497C5.84727 11.3288 5.89519 11.4007 5.9557 11.4612C6.01621 11.5217 6.08809 11.5696 6.16721 11.6022C6.24633 11.6348 6.33113 11.6514 6.41669 11.6511L14.0205 11.6465L10.5417 15.1252C10.4201 15.2468 10.3519 15.4117 10.3519 15.5836C10.3519 15.7555 10.4201 15.9203 10.5417 16.0419C10.6633 16.1635 10.8281 16.2317 11 16.2317C11.1719 16.2317 11.3368 16.1635 11.4584 16.0419L16.0417 11.4586C16.1009 11.3979 16.1476 11.3263 16.1792 11.2477V11.2477Z" fill="#0F808C"/>
</g>
<defs>
<clipPath id="clip0_282_11">
<rect width="15.5564" height="15.5564" fill="white" transform="translate(11) rotate(45)"/>
</clipPath>
</defs>
</svg>
