<svg width="24" height="24" viewBox="0 0 24 24" fill="none" xmlns="http://www.w3.org/2000/svg">
<path d="M9.16976 7.00176C8.98351 7.18912 8.87897 7.44257 8.87897 7.70676C8.87897 7.97095 8.98351 8.2244 9.16976 8.41176L12.7098 12.0018L9.16976 15.5418C8.98351 15.7291 8.87897 15.9826 8.87897 16.2468C8.87897 16.5109 8.98351 16.7644 9.16976 16.9518C9.26272 17.0455 9.37332 17.1199 9.49518 17.1707C9.61704 17.2214 9.74775 17.2476 9.87976 17.2476C10.0118 17.2476 10.1425 17.2214 10.2643 17.1707C10.3862 17.1199 10.4968 17.0455 10.5898 16.9518L14.8298 12.7118C14.9235 12.6188 14.9979 12.5082 15.0487 12.3863C15.0994 12.2645 15.1256 12.1338 15.1256 12.0018C15.1256 11.8697 15.0994 11.739 15.0487 11.6172C14.9979 11.4953 14.9235 11.3847 14.8298 11.2918L10.5898 7.00176C10.4968 6.90803 10.3862 6.83364 10.2643 6.78287C10.1425 6.7321 10.0118 6.70596 9.87976 6.70596C9.74775 6.70596 9.61704 6.7321 9.49518 6.78287C9.37332 6.83364 9.26272 6.90803 9.16976 7.00176Z" fill="white"/>
</svg>
